<svg width="128" height="128" viewBox="0 0 128 128" fill="none" xmlns="http://www.w3.org/2000/svg">
  <rect width="128" height="128" rx="30" fill="#05070D"/>
  <path d="M64 18L104 98H24L64 18Z" fill="url(#prismBody)"/>
  <path d="M64 18L104 98H64V18Z" fill="url(#prismRight)"/>
  <path d="M64 18L64 98H24L64 18Z" fill="url(#prismLeft)"/>
  <path d="M38 72L90 72" stroke="url(#beam)" stroke-width="3" stroke-linecap="round"/>
  <path d="M42 67L86 77" stroke="url(#beam2)" stroke-width="2" stroke-linecap="round"/>
  <path d="M46 79L82 65" stroke="url(#beam3)" stroke-width="2" stroke-linecap="round"/>
  <path d="M58 44L71 44L80 79H48L58 44Z" fill="url(#innerGlow)" fill-opacity="0.9"/>
  <ellipse cx="64" cy="103" rx="28" ry="6" fill="url(#shadow)" fill-opacity="0.8"/>
  <defs>
    <linearGradient id="prismBody" x1="64" y1="18" x2="64" y2="98" gradientUnits="userSpaceOnUse">
      <stop stop-color="#E7EBF4"/>
      <stop offset="0.45" stop-color="#A7B0C2"/>
      <stop offset="1" stop-color="#5F6876"/>
    </linearGradient>
    <linearGradient id="prismRight" x1="64" y1="24" x2="98" y2="91" gradientUnits="userSpaceOnUse">
      <stop stop-color="#D7DDE8"/>
      <stop offset="1" stop-color="#2E333E"/>
    </linearGradient>
    <linearGradient id="prismLeft" x1="30" y1="86" x2="64" y2="21" gradientUnits="userSpaceOnUse">
      <stop stop-color="#C5CCD8"/>
      <stop offset="1" stop-color="#717A88"/>
    </linearGradient>
    <linearGradient id="innerGlow" x1="64" y1="44" x2="64" y2="79" gradientUnits="userSpaceOnUse">
      <stop stop-color="#FFFFFF" stop-opacity="0.95"/>
      <stop offset="1" stop-color="#A0A7B5" stop-opacity="0.32"/>
    </linearGradient>
    <linearGradient id="beam" x1="38" y1="72.5" x2="90" y2="72.5" gradientUnits="userSpaceOnUse">
      <stop stop-color="#2B7FFF"/>
      <stop offset="0.33" stop-color="#6D50FF"/>
      <stop offset="0.66" stop-color="#FF1FA7"/>
      <stop offset="1" stop-color="#FF7A3D"/>
    </linearGradient>
    <linearGradient id="beam2" x1="42" y1="72" x2="86" y2="72" gradientUnits="userSpaceOnUse">
      <stop stop-color="#00C2FF"/>
      <stop offset="1" stop-color="#FFE600"/>
    </linearGradient>
    <linearGradient id="beam3" x1="46" y1="72" x2="82" y2="72" gradientUnits="userSpaceOnUse">
      <stop stop-color="#FF3D81"/>
      <stop offset="1" stop-color="#49F2A9"/>
    </linearGradient>
    <radialGradient id="shadow" cx="0" cy="0" r="1" gradientUnits="userSpaceOnUse" gradientTransform="translate(64 103) rotate(90) scale(6 28)">
      <stop stop-color="#ABB4C5"/>
      <stop offset="1" stop-color="#ABB4C5" stop-opacity="0"/>
    </radialGradient>
  </defs>
</svg>
